<?xml version="1.0" encoding="utf-8"?>
<!-- Generator: Adobe Illustrator 24.1.1, SVG Export Plug-In . SVG Version: 6.00 Build 0)  -->
<svg version="1.1" id="Layer_1" xmlns="http://www.w3.org/2000/svg" xmlns:xlink="http://www.w3.org/1999/xlink" x="0px" y="0px"
	 viewBox="0 0 24 24" style="enable-background:new 0 0 24 24;" xml:space="preserve">
<style type="text/css">
	.st0{fill:#FFFFFF;}
</style>
<g id="图层_2_1_">
	<g id="图层_1-2">
		<path class="st0" d="M12.1,8.6L12.1,8.6C12,8.7,12,8.7,12,8.6l-0.1-0.1l0,0C12,8.5,12,8.5,12.1,8.6L12.1,8.6z"/>
		<path class="st0" d="M12.1,8.6L12.1,8.6C12,8.7,12,8.7,12,8.6l-0.1-0.1l0,0C12,8.5,12,8.5,12.1,8.6L12.1,8.6z"/>
		<path class="st0" d="M24,0.1l-3.2,23.8c0,0.1-0.1,0.1-0.1,0.1c0,0,0,0,0,0l-5.5-3.1c0,0-0.1-0.1,0-0.1l0-9.8c0,0,0-0.1,0-0.1
			L12,8.6l0.1-0.1h0c0,0-0.1-0.1,0-0.1c0,0,0,0,0,0l4-2.9l0,0.1L23.8,0C23.9,0,23.9,0,24,0.1C24,0.1,24,0.1,24,0.1z"/>
		<path class="st0" d="M11.9,8.6L11.9,8.6c0,0,0.1,0.1,0,0.1c0,0,0,0,0,0l-3,2.1c0,0,0,0.1,0,0.1l0,9.9c0,0,0,0.1,0,0.1L3.3,24
			c0,0-0.1,0-0.1,0c0,0,0,0,0,0L0,0.1C0,0.1,0,0,0.1,0c0,0,0.1,0,0.1,0l7.7,5.6l0-0.1L11.9,8.6L11.9,8.6z"/>
		<path class="st0" d="M12.1,8.6L12.1,8.6C12,8.6,12,8.6,12,8.6l-0.1-0.1l0,0C11.9,8.5,12,8.5,12.1,8.6L12.1,8.6z"/>
		<path class="st0" d="M12.1,8.6L12.1,8.6C12,8.6,12,8.6,12,8.6l-0.1-0.1l0,0C11.9,8.5,12,8.5,12.1,8.6L12.1,8.6z"/>
	</g>
</g>
</svg>
