<?xml version="1.0" encoding="utf-8"?>
<!-- Generator: Adobe Illustrator 24.1.1, SVG Export Plug-In . SVG Version: 6.00 Build 0)  -->
<svg version="1.1" id="Layer_1" xmlns="http://www.w3.org/2000/svg" xmlns:xlink="http://www.w3.org/1999/xlink" x="0px" y="0px"
	 viewBox="0 0 24 24" style="enable-background:new 0 0 24 24;" xml:space="preserve">
<style type="text/css">
	.st0{fill:#FFFFFF;}
</style>
<g>
	<path class="st0" d="M15.5,8.2c1.5-0.9,2.6-0.6,3.4,0.9c2.4-1.4,4.5-0.3,5,2.4c0.3,1.8-0.1,3.3-1.4,4.5c-0.8,0.7-1.8,1-2.8,0.4
		c-0.6-0.3-0.8-0.1-0.8,0.5c0,0.6,0,1.2,0,1.8c0,0.6-0.2,0.9-0.9,0.9c-0.1,0-0.1,0-0.2,0c-1.5,0-1.5,0-1.5-1.6c0-2.7,0-5.4,0-8.1
		C16.4,9.3,16.2,8.6,15.5,8.2z M18.9,12.5c0,0.3,0,0.6,0,0.8c0.1,0.4-0.2,1,0.4,1.3c0.6,0.2,1.2,0.2,1.7-0.2c1-0.7,1.1-2.7,0.2-3.6
		c-0.5-0.5-1.1-0.6-1.8-0.4c-0.7,0.2-0.6,0.8-0.6,1.3C18.9,11.9,18.9,12.2,18.9,12.5z"/>
	<path class="st0" d="M15.1,12.1c0,0.9,0,1.8,0,2.7c0,0.4,0,0.7,0.4,1c0.4,0.3,0.3,0.5-0.1,0.7c-0.9,0.4-1.8,0.3-2.5-0.5
		c-0.2-0.2-0.3-0.5-0.6-0.2c-0.8,1-1.8,1.1-2.9,0.6c-1-0.4-1.5-1.3-1.8-2.3c-0.3-1.2-0.2-2.3,0.3-3.5c0.6-1.4,1.8-2,3.6-1.9
		c0.4,0,0.9,0.2,1.3-0.2c0.1-0.1,0.2-0.1,0.3-0.1c1.7-0.3,1.9,0,1.9,1.6C15.1,10.7,15.1,11.4,15.1,12.1z M12.5,12.3
		C12.5,12.3,12.5,12.3,12.5,12.3c0-0.5,0-1.1,0-1.6c0-0.3,0-0.5-0.4-0.5c-0.6,0-1.3-0.1-1.8,0.4c-0.8,0.8-1.1,2.7-0.4,3.6
		c0.4,0.6,0.9,0.9,1.7,0.6c0.7-0.2,0.9-0.7,0.9-1.4C12.5,13,12.5,12.6,12.5,12.3z"/>
	<path class="st0" d="M3.5,12.4c0-1,0-2.1,0-3.1c0-0.7-0.2-0.9-0.9-0.9c-0.6,0-1.2,0.1-1.8-0.2c-0.8-0.3-1.1-1-0.7-1.8
		c0.1-0.3,0.3-0.8,0.7-0.2C1,6.4,1.4,6.4,1.7,6.4c2.1,0,4.2,0,6.3,0c0.8,0,1,0.3,1,1c0,0.8-0.4,1-1.1,1c-1.9,0-1.9,0.1-1.9,2
		c0,1.8,0,3.5,0,5.3c0,0.8-0.3,1-1,1c-1.6,0-1.6,0-1.6-1.5C3.5,14.2,3.5,13.3,3.5,12.4z"/>
</g>
</svg>
