<?xml version="1.0" encoding="iso-8859-1"?>
<!-- Generator: Adobe Illustrator 24.1.1, SVG Export Plug-In . SVG Version: 6.00 Build 0)  -->
<svg version="1.1" id="Layer_1" xmlns="http://www.w3.org/2000/svg" xmlns:xlink="http://www.w3.org/1999/xlink" x="0px" y="0px"
	 viewBox="0 0 24 24" style="enable-background:new 0 0 24 24;" xml:space="preserve">
<path style="fill:#FFFFFF;" d="M1.935,5.806h20.129C23.134,5.806,24,6.673,24,7.742V21.29c0,1.069-0.866,1.935-1.935,1.935H1.935
	C0.866,23.226,0,22.359,0,21.29V7.742C0,6.673,0.866,5.806,1.935,5.806z"/>
<path style="fill:#FFFFFF;" d="M4.62,1.18C5.358,0.563,6.457,0.661,7.074,1.4l3.227,3.862c0.617,0.738,0.519,1.837-0.22,2.453
	c-0.738,0.617-1.837,0.519-2.453-0.22L4.4,3.634C3.784,2.895,3.882,1.796,4.62,1.18z"/>
<path style="fill:#FFFFFF;" d="M19.513,1.18c-0.724-0.617-1.801-0.519-2.405,0.22l-3.163,3.862
	c-0.604,0.738-0.508,1.837,0.215,2.453c0.724,0.617,1.801,0.519,2.405-0.22l3.163-3.862C20.333,2.895,20.236,1.796,19.513,1.18z"/>
<path style="fill:#FFFFFF;" d="M8.129,11.226c0.855,0,1.548,0.693,1.548,1.548v2.709c0,0.855-0.693,1.548-1.548,1.548
	s-1.548-0.693-1.548-1.548v-2.709C6.581,11.919,7.274,11.226,8.129,11.226z"/>
<path style="fill-rule:evenodd;clip-rule:evenodd;fill:#FFFFFF;" d="M16.258,11.226c0.855,0,1.548,0.693,1.548,1.548v2.709
	c0,0.855-0.693,1.548-1.548,1.548s-1.548-0.693-1.548-1.548v-2.709C14.71,11.919,15.403,11.226,16.258,11.226z"/>
<rect x="3.685" y="8.944" style="fill-rule:evenodd;clip-rule:evenodd;fill:none;" width="16.63" height="11.084"/>
</svg>
