<?xml version="1.0" encoding="utf-8"?>
<!-- Generator: Adobe Illustrator 24.1.1, SVG Export Plug-In . SVG Version: 6.00 Build 0)  -->
<svg version="1.1" id="Layer_1" xmlns="http://www.w3.org/2000/svg" xmlns:xlink="http://www.w3.org/1999/xlink" x="0px" y="0px"
	 viewBox="0 0 292.7 70" style="enable-background:new 0 0 292.7 70;" xml:space="preserve">
<style type="text/css">
	.st0{fill:#FFFFFF;}
</style>
<g>
	<g>
		<path class="st0" d="M17.1,35v16.2h-6.3V35l-10-24.4h6.7l6.4,17.5l6.3-17.5H27L17.1,35z"/>
		<path class="st0" d="M35.9,41.7c0,1.3,0.3,2.3,1,3c0.7,0.7,1.7,1,2.9,1c1.3,0,2.2-0.3,2.9-1c0.7-0.7,1-1.7,1-3l0.4,4.7
			c-0.5,1.6-1.3,2.9-2.4,3.8c-1.1,0.9-2.5,1.4-4.1,1.4c-2.6,0-4.6-0.8-6-2.5s-2.1-4.1-2.1-7.3V22.2h6.4V41.7z M43.8,22.2h6.3v28.9
			h-6.3V22.2z"/>
		<path class="st0" d="M74.7,27.7L63.4,45.2h12.1v5.9H56.2v-5.5l11.7-17.5H56.6v-5.9h18.2V27.7z"/>
		<path class="st0" d="M87.6,41.7c0,1.3,0.3,2.3,1,3c0.7,0.7,1.7,1,2.9,1c1.3,0,2.2-0.3,2.9-1c0.7-0.7,1-1.7,1-3l0.4,4.7
			c-0.5,1.6-1.3,2.9-2.4,3.8c-1.1,0.9-2.5,1.4-4.1,1.4c-2.6,0-4.6-0.8-6-2.5s-2.1-4.1-2.1-7.3V22.2h6.4V41.7z M95.4,22.2h6.3v28.9
			h-6.3V22.2z"/>
		<path class="st0" d="M108.7,10.6h6.4v40.5h-6.4V10.6z M112,40l12.1-17.8h6.9l-18.7,25.6L112,40z M117.7,35.8l4.4-4l10.2,19.4h-7
			L117.7,35.8z"/>
		<path class="st0" d="M135,10.7h6.3v6.3H135V10.7z M135,22.2h6.3v28.9H135V22.2z"/>
		<path class="st0" d="M159.9,35v16.2h-6.3V35l-10-24.4h6.7l6.4,17.5l6.3-17.5h6.7L159.9,35z"/>
		<path class="st0" d="M170.2,10.6h6.5V20l-6.5,6.7V10.6z"/>
		<path class="st0" d="M185,50.8c-1.5-0.5-2.7-1.3-3.7-2.4s-1.7-2.3-2.1-3.8l5.3-2.6c0.6,1.2,1.3,2.2,2.3,2.9s2.1,1,3.4,1
			c1.4,0,2.6-0.3,3.3-0.9c0.8-0.6,1.2-1.4,1.2-2.4c0-0.7-0.2-1.3-0.7-1.8c-0.4-0.4-1-0.7-1.7-1c-0.7-0.2-1.6-0.4-2.8-0.7
			c-0.2,0-0.3-0.1-0.5-0.1c-0.2,0-0.4-0.1-0.6-0.2c-0.1,0-0.1,0-0.2,0c0,0-0.1,0-0.2-0.1c-1.6-0.4-3-0.8-4.1-1.3
			c-1.1-0.5-2-1.3-2.8-2.4c-0.7-1.1-1.1-2.6-1.1-4.5c0-1.9,0.4-3.5,1.2-4.8c0.8-1.3,1.9-2.3,3.4-3c1.5-0.7,3.3-1,5.4-1
			c1.8,0,3.3,0.2,4.7,0.7c1.4,0.5,2.5,1.2,3.4,2.2c0.9,1,1.6,2.1,2,3.5l-5.4,2.6c-0.5-1.1-1.1-1.9-1.9-2.4c-0.8-0.6-1.8-0.8-2.9-0.8
			c-1.3,0-2.3,0.3-2.9,0.8c-0.7,0.5-1,1.3-1,2.3c0,0.7,0.2,1.2,0.7,1.6c0.4,0.4,1,0.7,1.7,0.9c0.7,0.2,1.6,0.4,2.9,0.7
			c0.1,0,0.1,0,0.2,0c0.1,0,0.1,0,0.2,0c0,0,0.1,0,0.1,0s0.1,0,0.1,0c1.8,0.4,3.3,0.8,4.5,1.2s2.2,1.3,3,2.5
			c0.8,1.2,1.2,2.8,1.2,4.9c0,1.9-0.4,3.5-1.3,4.9s-2.1,2.4-3.7,3.1c-1.6,0.7-3.5,1.1-5.7,1.1C188.2,51.6,186.5,51.3,185,50.8z"/>
		<path class="st0" d="M220.1,10.6h6.4v40.5h-6.4V10.6z M223.1,45H242v6.1h-18.9V45z"/>
		<path class="st0" d="M248,49.4c-1.4-1.4-2.1-3.6-2.1-6.4c0-3,0.8-5.3,2.4-6.8c1.6-1.5,4-2.3,7.2-2.3h5.3l0.4,5.1h-5.6
			c-1.3,0-2.2,0.3-2.9,1s-1,1.6-1,3c0,1.1,0.3,1.9,1,2.5c0.7,0.5,1.6,0.8,3,0.8c1.6,0,2.8-0.3,3.7-0.8c0.8-0.6,1.2-1.4,1.2-2.5
			l0.6,3.3c-0.2,1.2-0.6,2.2-1.2,2.9c-0.6,0.8-1.4,1.4-2.4,1.8c-1,0.4-2.1,0.6-3.4,0.6C251.6,51.6,249.5,50.8,248,49.4z M260.7,31.5
			c0-1.3-0.4-2.3-1.1-3c-0.7-0.7-1.8-1.1-3.1-1.1c-1,0-1.8,0.2-2.6,0.7s-1.4,1.1-1.8,1.8l-5.2-1.8c0.6-2,1.7-3.6,3.4-4.7
			c1.7-1.1,3.7-1.7,6.2-1.7c2.1,0,4,0.4,5.5,1.1c1.5,0.8,2.7,1.9,3.5,3.3c0.8,1.4,1.2,3.2,1.2,5.2v19.8h-6V31.5z"/>
		<path class="st0" d="M273.6,10.6h6.4v40.5h-6.4V10.6z M282.2,50.3c-1.1-0.9-2-2.1-2.5-3.7l0.4-5.3c0,0.9,0.2,1.8,0.5,2.4
			c0.3,0.7,0.8,1.2,1.3,1.5c0.6,0.3,1.3,0.5,2.1,0.5c1.3,0,2.2-0.4,3-1.3c0.7-0.8,1.1-2.1,1.1-3.6v-8.4c0-1.6-0.4-2.8-1.1-3.6
			c-0.7-0.9-1.7-1.3-3-1.3c-0.8,0-1.5,0.2-2.1,0.5c-0.6,0.3-1,0.8-1.3,1.5c-0.3,0.7-0.5,1.5-0.5,2.4l-0.6-4.9c0.7-1.7,1.7-3,2.9-3.9
			c1.2-0.9,2.5-1.4,4-1.4c1.7,0,3.1,0.4,4.3,1.2s2.1,2,2.7,3.5c0.6,1.6,0.9,3.4,0.9,5.6v9c0,2.2-0.3,4-1,5.6
			c-0.6,1.6-1.6,2.8-2.8,3.6c-1.2,0.8-2.7,1.2-4.4,1.2C284.6,51.6,283.3,51.1,282.2,50.3z"/>
	</g>
</g>
</svg>
